<svg width="25" height="25" viewBox="0 0 25 25" fill="none" xmlns="http://www.w3.org/2000/svg">
<path d="M17.7084 18.7502C18.2609 18.7502 18.7908 18.9697 19.1815 19.3604C19.5722 19.7511 19.7917 20.281 19.7917 20.8335C19.7917 21.386 19.5722 21.9159 19.1815 22.3066C18.7908 22.6973 18.2609 22.9168 17.7084 22.9168C17.1558 22.9168 16.6259 22.6973 16.2352 22.3066C15.8445 21.9159 15.625 21.386 15.625 20.8335C15.625 19.6772 16.5521 18.7502 17.7084 18.7502ZM1.04169 2.0835H4.44794L5.4271 4.16683H20.8334C21.1096 4.16683 21.3746 4.27658 21.5699 4.47193C21.7653 4.66728 21.875 4.93223 21.875 5.2085C21.875 5.38558 21.8229 5.56266 21.75 5.72933L18.0209 12.4689C17.6667 13.1043 16.9792 13.5418 16.1979 13.5418H8.43752L7.50002 15.2397L7.46877 15.3647C7.46877 15.4338 7.49621 15.5001 7.54504 15.5489C7.59388 15.5977 7.66012 15.6252 7.72919 15.6252H19.7917V17.7085H7.29169C6.73915 17.7085 6.20925 17.489 5.81855 17.0983C5.42785 16.7076 5.20835 16.1777 5.20835 15.6252C5.20835 15.2606 5.3021 14.9168 5.45835 14.6252L6.87502 12.0731L3.12502 4.16683H1.04169V2.0835ZM7.29169 18.7502C7.84422 18.7502 8.37412 18.9697 8.76483 19.3604C9.15553 19.7511 9.37502 20.281 9.37502 20.8335C9.37502 21.386 9.15553 21.9159 8.76483 22.3066C8.37412 22.6973 7.84422 22.9168 7.29169 22.9168C6.73915 22.9168 6.20925 22.6973 5.81855 22.3066C5.42785 21.9159 5.20835 21.386 5.20835 20.8335C5.20835 19.6772 6.13544 18.7502 7.29169 18.7502ZM16.6667 11.4585L19.5625 6.25016H6.39585L8.85419 11.4585H16.6667Z" fill="black"/>
</svg>
