<svg width="25" height="25" viewBox="0 0 25 25" fill="none" xmlns="http://www.w3.org/2000/svg">
<path d="M12.5 5.72917L18.75 10.4167V19.7917H6.24996V10.4167L12.5 5.72917ZM12.5 3.125L4.16663 9.375V21.875H20.8333V9.375L12.5 3.125ZM11.9791 9.89583V13.0208H11.4583V9.89583H10.4166V13.0208H9.89579V9.89583H8.85413V13.0208C8.85413 13.8854 9.55204 14.5833 10.4166 14.5833V18.75H11.4583V14.5833C12.3229 14.5833 13.0208 13.8854 13.0208 13.0208V9.89583H11.9791ZM13.5416 11.9792V15.1042H14.5833V18.75H15.625V9.89583C14.4791 9.89583 13.5416 10.8333 13.5416 11.9792Z" fill="black"/>
</svg>
