<svg width="57" height="57" viewBox="0 0 57 57" fill="none" xmlns="http://www.w3.org/2000/svg">
<g filter="url(#filter0_d_339_631)">
<circle cx="28.5" cy="25.5" r="13.5" fill="white"/>
</g>
<path d="M27.9198 28.1501C28.7946 28.1501 29.5038 27.4113 29.5038 26.5001C29.5038 25.5888 28.7946 24.8501 27.9198 24.8501C27.045 24.8501 26.3358 25.5888 26.3358 26.5001C26.3358 27.4113 27.045 28.1501 27.9198 28.1501Z" fill="#B3B3B3"/>
<path d="M32.1439 22.1H30.4702L29.8155 21.3575C29.7171 21.245 29.5972 21.155 29.4636 21.0935C29.3299 21.0319 29.1854 21.0001 29.0393 21H26.8006C26.5049 21 26.2198 21.132 26.0192 21.3575L25.3697 22.1H23.696C23.1152 22.1 22.64 22.595 22.64 23.2V29.7999C22.64 30.4049 23.1152 30.8999 23.696 30.8999H32.1439C32.7247 30.8999 33.1999 30.4049 33.1999 29.7999V23.2C33.1999 22.595 32.7247 22.1 32.1439 22.1ZM27.92 29.2499C26.4627 29.2499 25.28 28.0179 25.28 26.4999C25.28 24.982 26.4627 23.75 27.92 23.75C29.3772 23.75 30.5599 24.982 30.5599 26.4999C30.5599 28.0179 29.3772 29.2499 27.92 29.2499Z" fill="#B3B3B3"/>
<defs>
<filter id="filter0_d_339_631" x="0" y="0" width="57" height="57" filterUnits="userSpaceOnUse" color-interpolation-filters="sRGB">
<feFlood flood-opacity="0" result="BackgroundImageFix"/>
<feColorMatrix in="SourceAlpha" type="matrix" values="0 0 0 0 0 0 0 0 0 0 0 0 0 0 0 0 0 0 127 0" result="hardAlpha"/>
<feOffset dy="3"/>
<feGaussianBlur stdDeviation="7.5"/>
<feColorMatrix type="matrix" values="0 0 0 0 0.768627 0 0 0 0 0.768627 0 0 0 0 0.768627 0 0 0 0.4 0"/>
<feBlend mode="normal" in2="BackgroundImageFix" result="effect1_dropShadow_339_631"/>
<feBlend mode="normal" in="SourceGraphic" in2="effect1_dropShadow_339_631" result="shape"/>
</filter>
</defs>
</svg>
