<svg width="20" height="19" viewBox="0 0 20 19" fill="none" xmlns="http://www.w3.org/2000/svg">
<path fill-rule="evenodd" clip-rule="evenodd" d="M3.83276 12.2393C1.51138 9.9179 1.51138 6.15421 3.83275 3.83284C6.15413 1.51147 9.91781 1.51147 12.2392 3.83284C14.5606 6.15421 14.5606 9.9179 12.2392 12.2393C9.91782 14.5606 6.15413 14.5606 3.83276 12.2393ZM2.35357 2.35366C-0.784727 5.49196 -0.784726 10.5802 2.35357 13.7185C5.35617 16.7211 10.1437 16.8509 13.3006 14.108L18.1483 18.9556L19.9998 17.9821L14.638 12.6203C16.8189 9.48715 16.5124 5.14765 13.7184 2.35366C10.5801 -0.78464 5.49188 -0.784641 2.35357 2.35366Z" fill="#706868"/>
</svg>
