<svg width="25" height="25" viewBox="0 0 25 25" fill="none" xmlns="http://www.w3.org/2000/svg">
<path fill-rule="evenodd" clip-rule="evenodd" d="M5.29061 5.28023C9.24374 1.33231 15.6708 1.37398 19.6479 5.35211C23.6271 9.33127 23.6687 15.7615 19.7146 19.7146C15.7614 23.6677 9.33124 23.6271 5.35207 19.6479C4.2328 18.5333 3.38712 17.1744 2.88142 15.6779C2.37572 14.1814 2.22377 12.588 2.43749 11.0229C2.46553 10.8175 2.57402 10.6317 2.73909 10.5063C2.90416 10.3809 3.11229 10.3261 3.3177 10.3542C3.5231 10.3822 3.70895 10.4907 3.83437 10.6558C3.95978 10.8209 4.01449 11.029 3.98645 11.2344C3.80503 12.5608 3.93364 13.9111 4.36218 15.1794C4.79072 16.4477 5.50751 17.5993 6.45624 18.5438C9.83645 21.9229 15.2771 21.9427 18.6104 18.6104C21.9427 15.2771 21.9229 9.83648 18.5437 6.45627C15.1656 3.07919 9.72811 3.05731 6.39478 6.38544L7.17395 6.38856C7.27654 6.38904 7.37804 6.40972 7.47264 6.44943C7.56724 6.48913 7.6531 6.54708 7.72531 6.61997C7.79751 6.69285 7.85466 6.77924 7.89348 6.87421C7.9323 6.96918 7.95203 7.07086 7.95155 7.17346C7.95107 7.27605 7.93039 7.37755 7.89069 7.47215C7.85098 7.56676 7.79303 7.65261 7.72015 7.72482C7.64727 7.79703 7.56087 7.85417 7.4659 7.89299C7.37094 7.93181 7.26925 7.95154 7.16666 7.95106L4.51457 7.93856C4.30863 7.93747 4.11146 7.8551 3.96594 7.70938C3.82041 7.56366 3.73831 7.36638 3.73749 7.16044L3.72395 4.51044C3.7234 4.40784 3.74307 4.30615 3.78182 4.21115C3.82058 4.11616 3.87766 4.02972 3.94982 3.95679C4.02198 3.88386 4.1078 3.82585 4.20238 3.78609C4.29695 3.74632 4.39844 3.72557 4.50103 3.72502C4.60363 3.72448 4.70532 3.74414 4.80032 3.7829C4.89531 3.82165 4.98175 3.87874 5.05468 3.9509C5.12761 4.02306 5.18562 4.10887 5.22538 4.20345C5.26515 4.29803 5.2859 4.39951 5.28645 4.50211L5.29061 5.28127V5.28023ZM12.4989 7.55106C12.7061 7.55106 12.9049 7.63337 13.0514 7.77989C13.1979 7.9264 13.2802 8.12511 13.2802 8.33231V12.1761L15.6562 14.5511C15.7309 14.6231 15.7904 14.7093 15.8314 14.8046C15.8724 14.8999 15.894 15.0024 15.895 15.1061C15.8959 15.2098 15.8762 15.3127 15.837 15.4088C15.7977 15.5048 15.7398 15.592 15.6664 15.6654C15.5931 15.7388 15.5059 15.7969 15.4099 15.8362C15.3139 15.8755 15.2111 15.8953 15.1073 15.8945C15.0036 15.8936 14.9011 15.8721 14.8057 15.8312C14.7104 15.7903 14.6242 15.7309 14.5521 15.6563L11.7187 12.8229V8.33336C11.7187 8.12615 11.801 7.92744 11.9476 7.78093C12.0941 7.63442 12.2928 7.55211 12.5 7.55211L12.4989 7.55106Z" fill="black"/>
</svg>
