<svg width="18" height="13" viewBox="0 0 18 13" fill="none" xmlns="http://www.w3.org/2000/svg">
<path d="M11.8125 6.26479C11.8125 7.02005 11.5162 7.74438 10.9888 8.27843C10.4613 8.81248 9.74595 9.1125 9.00002 9.1125C8.2541 9.1125 7.53873 8.81248 7.01128 8.27843C6.48383 7.74438 6.18752 7.02005 6.18752 6.26479C6.18752 5.50953 6.48383 4.7852 7.01128 4.25115C7.53873 3.7171 8.2541 3.41707 9.00002 3.41707C9.74595 3.41707 10.4613 3.7171 10.9888 4.25115C11.5162 4.7852 11.8125 5.50953 11.8125 6.26479Z" fill="#D0D2D1"/>
<path fill-rule="evenodd" clip-rule="evenodd" d="M0 6.26497C0 6.26497 3.37501 0 9.00001 0C14.625 0 18 6.26497 18 6.26497C18 6.26497 14.625 12.5299 9.00001 12.5299C3.37501 12.5299 0 6.26497 0 6.26497ZM9.00001 10.2518C10.0443 10.2518 11.0458 9.83174 11.7843 9.08407C12.5227 8.3364 12.9375 7.32234 12.9375 6.26497C12.9375 5.20761 12.5227 4.19355 11.7843 3.44588C11.0458 2.69821 10.0443 2.27817 9.00001 2.27817C7.95572 2.27817 6.9542 2.69821 6.21578 3.44588C5.47735 4.19355 5.06251 5.20761 5.06251 6.26497C5.06251 7.32234 5.47735 8.3364 6.21578 9.08407C6.9542 9.83174 7.95572 10.2518 9.00001 10.2518Z" fill="#D0D2D1"/>
</svg>
