<svg width="21" height="20" viewBox="0 0 21 20" fill="none" xmlns="http://www.w3.org/2000/svg">
<path d="M7.67453 16.28L1.02571 16.28" stroke="#FF8C00" stroke-width="2" stroke-linecap="round"/>
<path d="M19.6419 16.28L7.67425 16.28" stroke="#FF8C00" stroke-width="2" stroke-linecap="round"/>
<path d="M10.5442 16.1538C10.5442 14.4545 9.17641 13.0769 7.48915 13.0769C5.80189 13.0769 4.43409 14.4545 4.43409 16.1538C4.43409 17.8532 5.80189 19.2308 7.48915 19.2308C9.17641 19.2308 10.5442 17.8532 10.5442 16.1538Z" fill="#FF8C00" stroke="#FF8C00" stroke-width="1.5"/>
<path d="M12.9933 3.71995L19.6421 3.71995" stroke="#FF8C00" stroke-width="2" stroke-linecap="round"/>
<path d="M1.02564 3.71995L12.9933 3.71995" stroke="#FF8C00" stroke-width="2" stroke-linecap="round"/>
<path d="M10.1239 3.84615C10.1239 5.54549 11.4917 6.92308 13.1789 6.92308C14.8662 6.92308 16.234 5.54549 16.234 3.84615C16.234 2.14682 14.8662 0.769231 13.1789 0.769231C11.4917 0.769231 10.1239 2.14682 10.1239 3.84615Z" fill="#FF8C00" stroke="#FF8C00" stroke-width="1.5"/>
</svg>
