<svg width="25" height="25" viewBox="0 0 25 25" fill="none" xmlns="http://www.w3.org/2000/svg">
<path d="M20.8334 2.0835H10.4167C9.58788 2.0835 8.79303 2.41274 8.20698 2.99879C7.62093 3.58484 7.29169 4.37969 7.29169 5.2085V12.5002C7.29169 13.329 7.62093 14.1238 8.20698 14.7099C8.79303 15.2959 9.58788 15.6252 10.4167 15.6252H20.8334C21.6622 15.6252 22.457 15.2959 23.0431 14.7099C23.6291 14.1238 23.9584 13.329 23.9584 12.5002V5.2085C23.9584 4.37969 23.6291 3.58484 23.0431 2.99879C22.457 2.41274 21.6622 2.0835 20.8334 2.0835ZM21.875 12.5002C21.875 12.7764 21.7653 13.0414 21.5699 13.2367C21.3746 13.4321 21.1096 13.5418 20.8334 13.5418H10.4167C10.1404 13.5418 9.87547 13.4321 9.68012 13.2367C9.48477 13.0414 9.37502 12.7764 9.37502 12.5002V5.2085C9.37502 4.93223 9.48477 4.66728 9.68012 4.47193C9.87547 4.27658 10.1404 4.16683 10.4167 4.16683H20.8334C21.1096 4.16683 21.3746 4.27658 21.5699 4.47193C21.7653 4.66728 21.875 4.93223 21.875 5.2085V12.5002ZM18.2292 8.3335C17.8436 8.3348 17.4722 8.47962 17.1875 8.73975C16.9635 8.53615 16.6852 8.402 16.3864 8.3536C16.0876 8.3052 15.7812 8.34463 15.5044 8.4671C15.2276 8.58956 14.9923 8.7898 14.8271 9.04346C14.662 9.29713 14.5741 9.5933 14.5741 9.896C14.5741 10.1987 14.662 10.4949 14.8271 10.7485C14.9923 11.0022 15.2276 11.2024 15.5044 11.3249C15.7812 11.4474 16.0876 11.4868 16.3864 11.4384C16.6852 11.39 16.9635 11.2558 17.1875 11.0522C17.3756 11.2232 17.6026 11.3457 17.8488 11.4091C18.0949 11.4725 18.3528 11.4749 18.6001 11.416C18.8474 11.3572 19.0766 11.2389 19.2679 11.0714C19.4591 10.904 19.6066 10.6924 19.6975 10.455C19.7885 10.2176 19.8201 9.96166 19.7897 9.70929C19.7594 9.45691 19.6679 9.21576 19.5232 9.00675C19.3786 8.79773 19.1851 8.62717 18.9596 8.50985C18.7341 8.39253 18.4834 8.33199 18.2292 8.3335ZM16.6667 17.7085C16.3904 17.7085 16.1255 17.8182 15.9301 18.0136C15.7348 18.2089 15.625 18.4739 15.625 18.7502V19.7918C15.625 20.0681 15.5153 20.3331 15.3199 20.5284C15.1246 20.7238 14.8596 20.8335 14.5834 20.8335H4.16669C3.89042 20.8335 3.62547 20.7238 3.43012 20.5284C3.23477 20.3331 3.12502 20.0681 3.12502 19.7918V15.6252H4.16669C4.44295 15.6252 4.70791 15.5154 4.90326 15.3201C5.09861 15.1247 5.20835 14.8598 5.20835 14.5835C5.20835 14.3072 5.09861 14.0423 4.90326 13.8469C4.70791 13.6516 4.44295 13.5418 4.16669 13.5418H3.12502V12.5002C3.12502 12.2239 3.23477 11.9589 3.43012 11.7636C3.62547 11.5682 3.89042 11.4585 4.16669 11.4585C4.44295 11.4585 4.70791 11.3488 4.90326 11.1534C5.09861 10.958 5.20835 10.6931 5.20835 10.4168C5.20835 10.1406 5.09861 9.87561 4.90326 9.68026C4.70791 9.48491 4.44295 9.37516 4.16669 9.37516C3.33789 9.37516 2.54303 9.7044 1.95698 10.2905C1.37093 10.8765 1.04169 11.6714 1.04169 12.5002V19.7918C1.04169 20.6206 1.37093 21.4155 1.95698 22.0015C2.54303 22.5876 3.33789 22.9168 4.16669 22.9168H14.5834C15.4122 22.9168 16.207 22.5876 16.7931 22.0015C17.3791 21.4155 17.7084 20.6206 17.7084 19.7918V18.7502C17.7084 18.4739 17.5986 18.2089 17.4033 18.0136C17.2079 17.8182 16.943 17.7085 16.6667 17.7085ZM6.25002 18.7502H7.29169C7.56795 18.7502 7.83291 18.6404 8.02826 18.4451C8.22361 18.2497 8.33335 17.9848 8.33335 17.7085C8.33335 17.4322 8.22361 17.1673 8.02826 16.9719C7.83291 16.7766 7.56795 16.6668 7.29169 16.6668H6.25002C5.97375 16.6668 5.7088 16.7766 5.51345 16.9719C5.3181 17.1673 5.20835 17.4322 5.20835 17.7085C5.20835 17.9848 5.3181 18.2497 5.51345 18.4451C5.7088 18.6404 5.97375 18.7502 6.25002 18.7502Z" fill="black"/>
</svg>
