<svg width="25" height="25" viewBox="0 0 25 25" fill="none" xmlns="http://www.w3.org/2000/svg">
<path d="M10.4166 4.1665C9.31158 4.1665 8.25177 4.60549 7.47037 5.38689C6.68897 6.16829 6.24998 7.2281 6.24998 8.33317C6.24998 9.43824 6.68897 10.498 7.47037 11.2794C8.25177 12.0609 9.31158 12.4998 10.4166 12.4998C11.5217 12.4998 12.5815 12.0609 13.3629 11.2794C14.1443 10.498 14.5833 9.43824 14.5833 8.33317C14.5833 7.2281 14.1443 6.16829 13.3629 5.38689C12.5815 4.60549 11.5217 4.1665 10.4166 4.1665ZM10.4166 6.24984C10.9692 6.24984 11.4991 6.46933 11.8898 6.86003C12.2805 7.25073 12.5 7.78064 12.5 8.33317C12.5 8.8857 12.2805 9.41561 11.8898 9.80631C11.4991 10.197 10.9692 10.4165 10.4166 10.4165C9.86411 10.4165 9.33421 10.197 8.94351 9.80631C8.55281 9.41561 8.33331 8.8857 8.33331 8.33317C8.33331 7.78064 8.55281 7.25073 8.94351 6.86003C9.33421 6.46933 9.86411 6.24984 10.4166 6.24984ZM17.7083 12.4998C17.5416 12.4998 17.4583 12.5832 17.4583 12.7498L17.1875 14.0623C16.9583 14.2498 16.625 14.4165 16.375 14.5832L15.0416 14.0623C14.9583 14.0623 14.7916 14.0623 14.7083 14.1665L13.7083 15.9998C13.625 16.0832 13.625 16.2498 13.7916 16.3332L14.875 17.1873V18.229L13.7916 19.0832C13.7083 19.1665 13.625 19.3332 13.7083 19.4165L14.7083 21.2498C14.7916 21.354 14.9583 21.354 15.0416 21.354L16.375 20.8332C16.625 20.9998 16.9583 21.1665 17.1875 21.354L17.4583 22.6665C17.4583 22.8332 17.5416 22.9165 17.7083 22.9165H19.7916C19.875 22.9165 20.0416 22.8332 20.0416 22.6665L20.2083 21.354C20.5416 21.1665 20.875 20.9998 21.125 20.8332L22.3958 21.354C22.5416 21.354 22.7083 21.354 22.7083 21.2498L23.7916 19.4165C23.875 19.3332 23.7916 19.1665 23.7083 19.0832L22.625 18.229V17.1873L23.7083 16.3332C23.7916 16.2498 23.875 16.0832 23.7916 15.9998L22.7083 14.1665C22.7083 14.0623 22.5416 14.0623 22.3958 14.0623L21.125 14.5832C20.875 14.4165 20.5416 14.2498 20.2083 14.0623L20.0416 12.7498C20.0416 12.5832 19.875 12.4998 19.7916 12.4998H17.7083ZM10.4166 13.5415C7.6354 13.5415 2.08331 14.9269 2.08331 17.7082V20.8332H12.1562C11.8646 20.2186 11.6562 19.5519 11.5521 18.854H4.06248V17.7082C4.06248 17.0415 7.3229 15.5207 10.4166 15.5207C10.8646 15.5207 11.3229 15.5623 11.7708 15.6248C11.9791 14.9582 12.2604 14.3332 12.625 13.7603C11.8125 13.6248 11.0416 13.5415 10.4166 13.5415ZM18.7916 16.1457C19.625 16.1457 20.3125 16.8332 20.3125 17.7498C20.3125 18.5832 19.625 19.2707 18.7916 19.2707C17.875 19.2707 17.1875 18.5832 17.1875 17.7498C17.1875 16.8332 17.875 16.1457 18.7916 16.1457Z" fill="black"/>
</svg>
