<svg width="25" height="25" viewBox="0 0 25 25" fill="none" xmlns="http://www.w3.org/2000/svg">
<path fill-rule="evenodd" clip-rule="evenodd" d="M16.6666 9.37467C16.6666 10.4797 16.2276 11.5396 15.4462 12.321C14.6648 13.1024 13.605 13.5413 12.4999 13.5413C11.3948 13.5413 10.335 13.1024 9.55364 12.321C8.77224 11.5396 8.33325 10.4797 8.33325 9.37467C8.33325 8.26961 8.77224 7.2098 9.55364 6.4284C10.335 5.64699 11.3948 5.20801 12.4999 5.20801C13.605 5.20801 14.6648 5.64699 15.4462 6.4284C16.2276 7.2098 16.6666 8.26961 16.6666 9.37467ZM14.5833 9.37467C14.5833 9.92721 14.3638 10.4571 13.9731 10.8478C13.5824 11.2385 13.0525 11.458 12.4999 11.458C11.9474 11.458 11.4175 11.2385 11.0268 10.8478C10.6361 10.4571 10.4166 9.92721 10.4166 9.37467C10.4166 8.82214 10.6361 8.29224 11.0268 7.90154C11.4175 7.51083 11.9474 7.29134 12.4999 7.29134C13.0525 7.29134 13.5824 7.51083 13.9731 7.90154C14.3638 8.29224 14.5833 8.82214 14.5833 9.37467Z" fill="black"/>
<path fill-rule="evenodd" clip-rule="evenodd" d="M12.5 1.0415C6.17183 1.0415 1.04163 6.17171 1.04163 12.4998C1.04163 18.828 6.17183 23.9582 12.5 23.9582C18.8281 23.9582 23.9583 18.828 23.9583 12.4998C23.9583 6.17171 18.8281 1.0415 12.5 1.0415ZM3.12496 12.4998C3.12496 14.6769 3.86767 16.6811 5.11246 18.2728C5.98666 17.1247 7.11444 16.1944 8.4077 15.5543C9.70097 14.9143 11.1247 14.5819 12.5677 14.5832C13.992 14.5818 15.3978 14.9056 16.678 15.5298C17.9582 16.154 19.0791 17.0623 19.9552 18.1853C20.8577 17.0015 21.4654 15.6199 21.728 14.1546C21.9905 12.6894 21.9004 11.1827 21.4651 9.7592C21.0297 8.33571 20.2616 7.03635 19.2244 5.96863C18.1872 4.90091 16.9106 4.09552 15.5004 3.61912C14.0901 3.14271 12.5866 3.00897 11.1144 3.22898C9.64217 3.44898 8.24349 4.01639 7.03409 4.88427C5.8247 5.75215 4.83935 6.89554 4.15957 8.21983C3.4798 9.54413 3.12515 11.0113 3.12496 12.4998ZM12.5 21.8748C10.3478 21.8781 8.26065 21.1377 6.59163 19.779C7.26343 18.8173 8.1576 18.032 9.19808 17.4901C10.2386 16.9482 11.3945 16.6657 12.5677 16.6665C13.7262 16.6656 14.8682 16.9411 15.8988 17.4701C16.9295 17.9991 17.8191 18.7664 18.4937 19.7082C16.8117 21.111 14.6902 21.8779 12.5 21.8748Z" fill="black"/>
</svg>
